<?xml version="1.0" encoding="utf-8"?>
<!-- Generator: Adobe Illustrator 27.0.0, SVG Export Plug-In . SVG Version: 6.00 Build 0)  -->
<svg version="1.1" id="Layer_1" xmlns="http://www.w3.org/2000/svg" xmlns:xlink="http://www.w3.org/1999/xlink" x="0px" y="0px"
	 viewBox="0 0 700 700" style="enable-background:new 0 0 700 700;" xml:space="preserve">
<style type="text/css">
	.st0{fill:#FFFFFF;}
</style>
<g>
	<path class="st0" d="M401.8,350L678.3,72.3c14.8-14.8,14.8-38.3,0-51.8c-14.8-14.8-38.3-14.8-51.8,0L350,298.2L72.3,20.5
		c-14.8-14.8-38.3-14.8-51.8,0c-14.8,14.8-14.8,38.3,0,51.8L296.9,350L20.5,627.7c-14.8,14.8-14.8,38.3,0,51.8
		c7.4,7.4,17.3,11.1,25.9,11.1s18.5-3.7,25.9-11.1L350,401.8l277.7,277.7c7.4,7.4,17.3,11.1,25.9,11.1c8.6,0,18.5-3.7,25.9-11.1
		c14.8-14.8,14.8-38.3,0-51.8L401.8,350z"/>
</g>
</svg>
