<svg width="30" height="25" viewBox="0 0 30 25" fill="none" xmlns="http://www.w3.org/2000/svg">
<path d="M26.2319 15.5332H3.03198L0 12.2749H29.262L26.23 15.5332H26.2319Z" fill="#151F6D"/>
<path d="M23.4119 0.00390625V0.62207C23.433 1.68295 23.1735 2.7303 22.6597 3.65869C22.1459 4.58709 21.396 5.3637 20.4858 5.90918C19.5758 5.36362 18.8261 4.58707 18.3123 3.65869C17.7985 2.73031 17.5388 1.68293 17.5598 0.62207V0.00390625H11.707V0.62207C11.7281 1.68293 11.4684 2.73031 10.9546 3.65869C10.4408 4.58707 9.69108 5.36362 8.78101 5.90918C7.87086 5.3637 7.12098 4.58709 6.60718 3.65869C6.09337 2.7303 5.83385 1.68295 5.85498 0.62207V0.00390625H0.00195312V10.3711H29.2639V0L23.4119 0.00390625Z" fill="#151F6D"/>
<path d="M26.2322 17.4331H3.03223V24.2178H26.2322V17.4331Z" fill="#151F6D"/>
</svg>
